Coordinates
version=1
nRows=17
nColumns=36
inDegrees=yes

Units are S.I. units (second, meters, Newtons, ...)
If the header above contains a line with 'inDegrees', this indicates whether rotational values are in degrees (yes) or radians (no).

endheader
time	pelvis_tilt	pelvis_list	pelvis_rotation	pelvis_tx	pelvis_ty	pelvis_tz	hip_flexion_r	hip_adduction_r	hip_rotation_r	knee_angle_r	knee_angle_r_beta	ankle_angle_r	subtalar_angle_r	mtp_angle_r	hip_flexion_l	hip_adduction_l	hip_rotation_l	knee_angle_l	knee_angle_l_beta	ankle_angle_l	subtalar_angle_l	mtp_angle_l	lumbar_extension	lumbar_bending	lumbar_rotation	arm_flex_r	arm_add_r	arm_rot_r	elbow_flex_r	pro_sup_r	arm_flex_l	arm_add_l	arm_rot_l	elbow_flex_l	pro_sup_l
      2.43333330	    -26.06068089	      0.00482564	     -2.04136186	      0.58299221	      0.83377208	     -0.21776014	     65.02425299	    -12.40615715	     -7.49505206	     56.21755125	      0.98118137	     23.88308140	     10.09853133	     -7.49999987	     63.71740956	    -12.20627236	     -0.75799863	     55.04762704	      0.96076234	     23.88857484	      2.54695982	     -7.49999987	    -16.15848438	      0.97165752	      6.87016826	     77.90387019	     -6.62285927	     66.04007449	    128.75611430	     81.98744701	     74.22218064	     -2.23296185	     59.54645811	    123.82055789	     88.58934566
      2.45000000	    -26.97056776	      0.12172686	     -1.95104259	      0.58328475	      0.82547858	     -0.21762865	     67.68532105	    -12.98247078	     -7.47225739	     58.64249569	      1.02350463	     24.37677926	     10.19232223	     -7.49999987	     66.29286184	    -12.29000443	     -0.63786615	     57.22039169	      0.99868423	     24.18999584	      1.98490190	     -7.49999987	    -16.98632320	      0.94825700	      7.08056123	     78.73903217	     -6.50693785	     67.61827535	    129.11247344	     81.91214903	     75.11043156	     -1.75991118	     61.69456322	    123.65843246	     89.20174041
      2.46666670	    -27.78724729	      0.28200349	     -1.77026742	      0.57773574	      0.81694566	     -0.22196122	     70.09681959	    -13.65323291	     -7.45403029	     60.75325820	      1.06034439	     24.61574732	     10.03857434	     -7.49999987	     68.63170500	    -12.23860583	     -0.63268436	     59.14599726	      1.03229239	     24.40191201	      1.47936163	     -7.49999987	    -18.13615416	      0.92763410	      7.21720437	     80.35768730	     -7.96791472	     70.21569350	    129.85469893	     81.73589088	     76.35926581	     -1.20957041	     61.15916809	    123.05793406	     89.73164631
      2.48333330	    -28.68097758	      0.24351220	     -1.49852695	      0.57697965	      0.80836693	     -0.21405569	     72.25259288	    -14.09184694	     -7.50379997	     62.49643745	      1.09076860	     24.70820166	      9.69364858	     -7.49999987	     70.91552792	    -12.27885715	     -0.47821475	     60.77930774	      1.06079904	     24.53993480	      1.10928126	     -7.49999987	    -19.28944981	      0.95629517	      8.32593082	     82.16321336	     -9.14557515	     73.41622454	    129.77488496	     81.38119475	     76.86200424	     -1.32899739	     62.26931234	    122.42887067	     90.41615331
      2.50000000	    -29.52659349	      0.14478861	     -1.24628197	      0.57024250	      0.78904190	     -0.21965616	     74.72773133	    -14.57725130	     -7.46328612	     64.72321221	      1.12963316	     24.98041871	      9.29914581	     -7.49999987	     73.56993057	    -12.32582810	     -0.26375347	     62.96757485	      1.09899150	     24.82720360	      0.80231459	     -7.49999987	    -20.06520662	      1.09574580	      9.02825872	     84.75712018	     -9.72242678	     75.97062866	    130.94887294	     73.04956716	     77.83509879	     -0.60052891	     58.62491011	    121.65369340	     96.28061106
      2.51666670	    -30.53207749	      0.14843937	     -1.03296125	      0.57004644	      0.77304631	     -0.21891923	     77.55518501	    -15.00882539	     -7.17495651	     67.19089310	      1.17270231	     25.31017711	      8.58901271	     -7.49999987	     76.47581182	    -12.37323327	     -0.08919313	     65.33547306	      1.14031912	     25.25918898	      0.47990504	     -7.49999987	    -20.51157406	      1.16391118	      9.57650605	     86.01778791	    -10.38001329	     77.14891006	    131.75485675	     72.60001013	     78.14806380	     -0.40838726	     57.33801326	    121.78752597	     95.23992109
      2.53333330	    -31.66592279	      0.09632196	     -0.71435301	      0.55619164	      0.76037602	     -0.22078006	     80.70709876	    -15.52484088	     -6.87023485	     69.77522660	      1.21780744	     25.60521857	      8.13935447	     -7.49999987	     79.77176336	    -12.37223542	      0.10457301	     67.82048256	      1.18369072	     25.59878527	      0.17294327	     -7.49999987	    -20.99866151	      1.28283402	     10.30162607	     88.61548371	    -10.48784001	     79.23448677	    133.88096715	     72.52772538	     79.23376331	      0.53849448	     56.84063046	    122.00387604	     95.53437436
      2.55000000	    -32.62056443	     -0.03764787	     -0.44653756	      0.55653127	      0.75537391	     -0.22037653	     83.29400207	    -15.89761728	     -6.71648524	     71.82744898	      1.25362548	     25.61402623	      7.50751442	     -7.49999987	     82.65598524	    -12.37527131	      0.35286519	     69.92136597	      1.22035805	     25.68261989	     -0.32881593	     -7.49999987	    -22.01903690	      1.52048932	     11.39758829	     90.21987355	    -12.12477954	     82.61388523	    132.27487769	     72.09052961	     78.76075868	      0.86853682	     56.55489173	    118.41502358	     96.21651260
      2.56666670	    -33.42829584	     -0.22280890	     -0.15974577	      0.54866287	      0.74281827	     -0.21801392	     85.73674824	    -16.22556979	     -6.51997739	     73.84835813	      1.28889700	     25.61243829	      6.91368722	     -7.49999987	     85.38814318	    -12.38814100	      0.62719518	     71.96550775	      1.25603506	     25.70494724	     -0.71435069	     -7.49999987	    -23.07222218	      1.60105299	     12.40361436	     92.20057310	    -13.11111397	     84.04459287	    133.33905942	     70.98033313	     80.48047204	      1.77774439	     57.31914526	    118.25289560	     96.44791026
      2.58333330	    -34.37037356	     -0.34315721	      0.04576521	      0.54996072	      0.72669830	     -0.22653138	     88.34727619	    -16.62923076	     -6.27357653	     75.89848077	      1.32467839	     25.54825951	      6.18876134	     -7.49999987	     88.18015529	    -12.32728229	      0.88317955	     74.01490487	      1.29180379	     25.62241127	     -1.19893476	     -7.49999987	    -23.77301069	      1.93451702	     12.14303520	     92.78953600	    -13.96392969	     84.09156163	    134.33639541	     70.24576718	     81.18967478	      1.87180252	     58.81986309	    119.02599719	     96.03893454
      2.60000000	    -35.03987899	     -0.30748781	      0.21168435	      0.54220726	      0.70345911	     -0.22339743	     91.14959288	    -17.01477390	     -5.69254454	     78.46880816	      1.36953906	     25.93561072	      5.84019300	     -7.49999987	     90.94733187	    -12.24197173	      1.08858811	     76.48243821	      1.33487037	     25.76865793	     -1.69503425	     -7.49999987	    -24.12546472	      1.76299034	     12.78359087	     94.50813942	    -13.76952430	     84.66366499	    135.03297836	     70.06218903	     82.73181098	      2.73677158	     56.60658974	    119.58340896	     97.15904595
      2.61666670	    -35.83882916	     -0.39056961	      0.36268843	      0.52952382	      0.69385471	     -0.22423170	     94.07304563	    -17.33923717	     -5.23490174	     80.87038029	      1.41145440	     25.89427277	      5.32092994	     -7.49999987	     93.89942027	    -12.18795921	      1.35809072	     78.67946899	      1.37321579	     25.66998211	     -2.26114539	     -7.49999987	    -24.80691252	      2.05903742	     13.32194179	     97.36708030	    -13.73977188	     86.95153803	    135.85009368	     53.80831923	     83.63134406	      3.42577212	     57.41321231	    119.81038089	    102.51024438
      2.63333330	    -36.69988232	     -0.39542740	      0.52081886	      0.52963258	      0.68516957	     -0.22438392	     96.80234480	    -17.71906831	     -4.85272857	     82.92840759	      1.44737376	     25.85533470	      4.96710616	     -7.49999987	     96.59657512	    -12.04786417	      1.55366734	     80.58009529	      1.40638797	     25.62955773	     -2.63789434	     -7.49999987	    -25.51351135	      2.27616943	     13.49136624	     98.40611231	    -14.51788074	     88.16820895	    134.78968306	     53.51849614	     84.70006665	      3.06354000	     58.16012722	    117.69812334	    102.33709396
      2.65000000	    -37.53296383	     -0.41440251	      0.69037534	      0.50981749	      0.67439634	     -0.22170302	     99.46532141	    -18.05268704	     -4.54127823	     84.68161344	      1.47797297	     25.64215371	      4.74074487	     -7.49999987	     99.21659668	    -11.92121332	      1.67146914	     82.17158561	      1.43416472	     25.40096736	     -2.87797610	     -7.49999987	    -26.42040916	      2.36743259	     13.96667770	    100.78147236	    -15.08943246	     87.27642051	    133.71142817	     53.33250824	     86.86212516	      3.49212096	     56.93340604	    117.23143495	    102.19855418
      2.66666670	    -37.77596791	     -0.39884336	      0.68046718	      0.52293374	      0.65315703	     -0.22072772	    101.57791642	    -18.21764984	     -4.17937431	     86.65995306	      1.51250151	     25.49134544	      4.31902150	     -7.49999987	    101.20019992	    -11.91248718	      1.94785682	     83.98066305	      1.46573908	     25.20542899	     -3.43120728	     -7.49999987	    -26.98333009	      2.36003785	     14.06084404	    101.57344026	    -14.89926168	     86.69767667	    136.13886373	     41.48914791	     87.37227054	      3.97276821	     57.60321171	    118.48185704	     97.62181297
      2.68333330	    -38.01996566	     -0.36128223	      0.68344733	      0.52302398	      0.63787575	     -0.22077610	    103.75628739	    -18.36395829	     -3.67442018	     88.82331578	      1.55025931	     25.61877310	      3.94988105	     -7.49999987	    103.17187446	    -11.93330670	      2.23622270	     85.93845744	      1.49990904	     25.28457248	     -3.63338177	     -7.49999987	    -27.27687946	      2.34043993	     14.04551260	    101.30016807	    -14.32504903	     86.08843287	    135.62652104	     41.82933131	     87.52205449	      4.08606560	     55.93362008	    118.26865673	     96.44642506
      2.70000000	    -38.22029947	     -0.36659713	      0.77428978	      0.50950496	      0.62894114	     -0.22187810	    105.81009266	    -18.56974817	     -3.24054768	     90.73432576	      1.58361273	     25.70659995	      3.63244557	     -7.49999987	    105.07797596	    -11.86197278	      2.49562417	     87.71122878	      1.53084973	     25.31371969	     -3.77630730	     -7.49999987	    -27.79589443	      2.39653092	     13.80600937	    102.06262474	    -14.63957140	     86.73560262	    134.99669780	     41.80351420	     89.14168306	      5.02177205	     55.02433924	    117.39306280	     96.44090231
